# Blender v2.83.5 OBJ File: ''
# www.blender.org
mtllib tree.mtl
o Cube
v 0.246570 0.246570 -0.246570
v 0.246570 -0.246570 -0.246570
v 0.246570 0.246570 0.246570
v 0.246570 -0.246570 0.246570
v -0.246570 0.246570 -0.246570
v -0.246570 -0.246570 -0.246570
v -0.246570 0.246570 0.246570
v -0.246570 -0.246570 0.246570
v 0.246570 0.609827 -0.246570
v 0.246570 0.609827 0.246570
v -0.246570 0.609827 -0.246570
v -0.246570 0.609827 0.246570
v 1.002670 0.609827 -1.002670
v 1.002670 0.609827 1.002670
v -1.002670 0.609827 -1.002670
v -1.002670 0.609827 1.002670
v 0.000000 3.441775 0.000000
vt 0.500000 0.000000
vt 0.500000 0.250000
vt 0.500000 0.250000
vt 0.500000 0.750000
vt 0.250000 1.000000
vt 0.250000 0.750000
vt 0.250000 0.250000
vt 0.250000 0.000000
vt 0.250000 0.500000
vt 0.000000 0.750000
vt 0.000000 0.500000
vt 0.500000 0.500000
vt 0.625000 0.500000
vt 0.812500 0.750000
vt 0.625000 0.750000
vt 0.500000 0.750000
vt 0.500000 0.500000
vt 0.500000 1.000000
vt 0.500000 1.000000
vt 0.812500 0.250000
vt 0.625000 0.000000
vt 0.625000 0.250000
vt 0.625000 0.000000
vt 0.625000 0.250000
vt 0.812500 1.000000
vt 0.625000 1.000000
vt 0.812500 0.500000
vt 0.625000 0.750000
vt 0.625000 1.000000
vt 0.625000 0.250000
vt 0.625000 0.500000
vt 0.500000 0.000000
vt 0.812500 0.000000
vn -1.0000 0.0000 0.0000
vn 0.0000 0.0000 1.0000
vn 0.0000 -1.0000 0.0000
vn 1.0000 0.0000 0.0000
vn 0.0000 0.0000 -1.0000
vn -0.9427 0.3338 0.0000
vn 0.0000 0.3338 0.9427
vn 0.0000 0.3338 -0.9427
vn 0.9427 0.3338 0.0000
usemtl Material
s off
f 7/1/1 11/2/1 5/3/1
f 3/4/2 8/5/2 4/6/2
f 7/1/1 6/7/1 8/8/1
f 2/9/3 8/10/3 6/11/3
f 1/12/4 4/6/4 2/9/4
f 5/3/5 2/9/5 6/7/5
f 9/13/3 14/14/3 10/15/3
f 1/12/4 10/16/4 3/4/4
f 5/3/5 9/17/5 1/12/5
f 3/4/2 12/18/2 7/19/2
f 15/20/6 16/21/6 17/22/6
f 12/23/3 15/20/3 11/24/3
f 10/15/3 16/25/3 12/26/3
f 11/24/3 13/27/3 9/13/3
f 16/25/7 14/28/7 17/29/7
f 13/27/8 15/30/8 17/31/8
f 14/28/9 13/27/9 17/31/9
f 7/1/1 12/32/1 11/2/1
f 3/4/2 7/19/2 8/5/2
f 7/1/1 5/3/1 6/7/1
f 2/9/3 4/6/3 8/10/3
f 1/12/4 3/4/4 4/6/4
f 5/3/5 1/12/5 2/9/5
f 9/13/3 13/27/3 14/14/3
f 1/12/4 9/17/4 10/16/4
f 5/3/5 11/2/5 9/17/5
f 3/4/2 10/16/2 12/18/2
f 12/23/3 16/33/3 15/20/3
f 10/15/3 14/14/3 16/25/3
f 11/24/3 15/20/3 13/27/3
